
      <svg data-logo="logo" xmlns="http://www.w3.org/2000/svg" viewBox="0 0 286 37">
        <g id="logogram" transform="translate(0, 18.5) rotate(0) "></g>
        <g id="logotype" transform="translate(0, 1)"><path fill="#111111" d="M0.70 4.75L22.86 4.75Q26.11 4.75 28.54 5.64Q30.98 6.53 32.57 8.06Q34.16 9.58 34.97 11.50Q35.77 13.43 35.77 15.49L35.77 15.49Q35.77 17.70 34.95 19.68Q34.13 21.66 32.50 23.20Q30.87 24.73 28.46 25.63Q26.04 26.52 22.86 26.52L22.86 26.52L15.33 26.52Q15.33 26.52 15.31 26.54Q15.30 26.55 15.28 26.55Q15.26 26.55 15.26 26.59L15.26 26.59L15.26 31L0.70 31Q0.70 28.66 0.70 26.31Q0.70 23.96 0.70 21.62Q0.70 19.27 0.70 16.93Q0.70 14.58 0.70 12.24L0.70 12.24Q0.70 10.35 0.70 8.48Q0.70 6.60 0.70 4.75L0.70 4.75ZM15.33 18.92L18.55 18.92Q19.60 18.92 20.32 18.56Q21.04 18.19 21.39 17.61Q21.74 17.03 21.74 16.44L21.74 16.44Q21.74 15.81 21.39 15.27Q21.04 14.72 20.34 14.38Q19.64 14.02 18.55 14.02L18.55 14.02L15.33 14.02Q15.30 14.02 15.28 14.04Q15.26 14.06 15.26 14.09L15.26 14.09L15.26 18.89Q15.26 18.89 15.28 18.89Q15.30 18.89 15.31 18.91Q15.33 18.92 15.33 18.92L15.33 18.92ZM51.98 32.05L51.98 32.05Q49.81 32.05 47.78 31.73Q45.75 31.42 44.00 30.77Q42.25 30.13 40.81 29.14Q39.38 28.16 38.36 26.85Q37.35 25.54 36.79 23.88Q36.23 22.21 36.23 20.18L36.23 20.18Q36.23 17.80 37.01 15.90Q37.80 13.99 39.25 12.55Q40.71 11.12 42.67 10.16Q44.63 9.19 46.99 8.72Q49.35 8.25 51.98 8.25L51.98 8.25Q55.27 8.25 58.12 9.00Q60.97 9.75 63.12 11.24Q65.28 12.73 66.50 14.97Q67.73 17.21 67.73 20.18L67.73 20.18Q67.73 23.16 66.50 25.38Q65.28 27.61 63.12 29.09Q60.97 30.58 58.12 31.32Q55.27 32.05 51.98 32.05ZM52.01 22.77L52.01 22.77Q54.18 22.77 55.09 21.93Q56.00 21.09 56.00 20.11L56.00 20.11Q56.00 19.66 55.79 19.20Q55.58 18.75 55.13 18.36Q54.67 17.98 53.90 17.75Q53.13 17.52 52.01 17.52L52.01 17.52Q50.89 17.52 50.10 17.75Q49.32 17.98 48.84 18.36Q48.37 18.75 48.16 19.20Q47.95 19.66 47.95 20.15L47.95 20.15Q47.95 20.64 48.16 21.11Q48.37 21.59 48.86 21.95Q49.35 22.32 50.12 22.55Q50.89 22.77 52.01 22.77ZM84.00 32.05L84.00 32.05Q81.83 32.05 79.80 31.73Q77.77 31.42 76.02 30.77Q74.27 30.13 72.84 29.14Q71.40 28.16 70.39 26.85Q69.37 25.54 68.81 23.88Q68.25 22.21 68.25 20.18L68.25 20.18Q68.25 17.80 69.04 15.90Q69.83 13.99 71.28 12.55Q72.73 11.12 74.69 10.16Q76.65 9.19 79.01 8.72Q81.38 8.25 84.00 8.25L84.00 8.25Q87.29 8.25 90.14 9.00Q93.00 9.75 95.15 11.24Q97.30 12.73 98.53 14.97Q99.75 17.21 99.75 20.18L99.75 20.18Q99.75 23.16 98.53 25.38Q97.30 27.61 95.15 29.09Q93.00 30.58 90.14 31.32Q87.29 32.05 84.00 32.05ZM84.04 22.77L84.04 22.77Q86.21 22.77 87.12 21.93Q88.03 21.09 88.03 20.11L88.03 20.11Q88.03 19.66 87.82 19.20Q87.61 18.75 87.15 18.36Q86.70 17.98 85.93 17.75Q85.16 17.52 84.04 17.52L84.04 17.52Q82.92 17.52 82.13 17.75Q81.34 17.98 80.87 18.36Q80.40 18.75 80.19 19.20Q79.98 19.66 79.98 20.15L79.98 20.15Q79.98 20.64 80.19 21.11Q80.40 21.59 80.89 21.95Q81.38 22.32 82.15 22.55Q82.92 22.77 84.04 22.77ZM112.74 32.96L100.63 35.41Q100.63 33.31 100.63 31.25Q100.63 29.18 100.63 27.10Q100.63 25.02 100.63 22.95Q100.63 20.88 100.63 18.78L100.63 18.78L112.74 18.78Q112.74 22.39 112.74 25.87Q112.74 29.36 112.74 32.96L112.74 32.96ZM100.63 18.78L100.63 18.78Q100.63 16.41 100.63 14.02Q100.63 11.64 100.63 9.30L100.63 9.30L112.74 9.30Q112.74 10.45 112.74 11.61Q112.74 12.76 112.74 13.92Q112.74 15.07 112.74 16.23L112.74 16.23Q112.74 16.23 112.72 16.25Q112.70 16.27 112.70 16.27L112.70 16.27Q109.69 16.89 106.66 17.52Q103.64 18.16 100.63 18.78ZM115.68 10.56L115.68 10.56L115.68 18.92Q117.25 17.91 119.35 17.38Q121.45 16.86 123.52 16.86L123.52 16.86Q124.85 16.86 126.05 17.10Q127.26 17.35 128.19 17.86Q129.12 18.36 129.66 19.15Q130.20 19.94 130.20 21.02L130.20 21.02Q130.20 21.06 130.20 21.11Q130.20 21.16 130.20 21.22Q130.20 21.27 130.20 21.34L130.20 21.34Q129.68 20.64 128.85 20.08Q128.03 19.52 127.00 19.13Q125.97 18.75 124.81 18.56Q123.66 18.36 122.43 18.36L122.43 18.36Q120.54 18.36 119.07 18.73Q117.60 19.10 116.53 19.77Q115.47 20.43 114.77 21.30Q114.07 22.18 113.72 23.16Q113.37 24.14 113.37 25.16L113.37 25.16Q113.37 26.84 114.07 28.09Q114.77 29.36 115.97 30.20Q117.18 31.04 118.70 31.47Q120.23 31.91 121.87 31.91L121.87 31.91Q123.24 31.91 124.62 31.65Q126.00 31.39 127.26 30.75L127.26 30.75Q128.00 29.04 128.75 27.32Q129.50 25.61 130.24 23.89L130.24 23.89Q129.82 24.91 129.01 25.16Q128.21 25.40 127.58 25.40L127.58 25.40Q126.28 25.40 125.58 24.86Q124.88 24.31 124.88 23.65L124.88 23.65Q124.88 22.98 125.56 22.46Q126.25 21.93 127.58 21.93L127.58 21.93Q128.17 21.93 128.77 22.09Q129.36 22.25 129.78 22.63Q130.20 23.02 130.20 23.65L130.20 23.65Q130.20 25.47 130.20 27.31Q130.20 29.14 130.20 31L130.20 31Q131.43 31 132.65 31Q133.88 31 135.10 31Q136.33 31 137.55 31Q138.78 31 140.00 31Q141.23 31 142.45 31L142.45 31Q142.45 27.61 142.45 24.21Q142.45 20.81 142.45 17.42L142.45 17.42Q142.45 15.11 141.19 13.39Q139.93 11.68 137.78 10.52Q135.63 9.37 132.90 8.81Q130.17 8.25 127.23 8.25L127.23 8.25Q124.22 8.25 121.22 8.83Q118.23 9.40 115.68 10.56ZM150.47 4.75L171.33 4.75Q174.62 4.75 177.15 5.47Q179.69 6.18 181.51 7.44Q183.33 8.70 184.49 10.37Q185.64 12.03 186.20 13.92Q186.76 15.81 186.76 17.77L186.76 17.77Q186.76 20.25 185.87 22.62Q184.98 24.98 183.10 26.87Q181.23 28.76 178.31 29.88Q175.39 31 171.33 31L171.33 31L150.47 31Q150.47 28.76 150.47 26.54Q150.47 24.31 150.47 22.09Q150.47 19.87 150.47 17.65Q150.47 15.42 150.47 13.18L150.47 13.18Q150.47 11.08 150.47 8.97Q150.47 6.85 150.47 4.75L150.47 4.75ZM168.53 14.83L168.53 14.83L164.36 14.83Q164.36 14.83 164.34 14.83Q164.33 14.83 164.33 14.83Q164.33 14.83 164.33 14.85Q164.33 14.86 164.33 14.90L164.33 14.90L164.33 20.85Q164.33 20.88 164.33 20.90Q164.33 20.92 164.33 20.92Q164.33 20.92 164.34 20.92Q164.36 20.92 164.36 20.92L164.36 20.92L168.60 20.92Q169.37 20.92 169.98 20.67Q170.59 20.43 171.01 20.01Q171.43 19.59 171.66 19.03Q171.89 18.47 171.89 17.88L171.89 17.88Q171.89 17.03 171.48 16.34Q171.08 15.63 170.35 15.23Q169.61 14.83 168.53 14.83ZM189.35 10.56L189.35 10.56L189.35 18.92Q190.93 17.91 193.03 17.38Q195.13 16.86 197.19 16.86L197.19 16.86Q198.52 16.86 199.73 17.10Q200.94 17.35 201.86 17.86Q202.79 18.36 203.33 19.15Q203.88 19.94 203.88 21.02L203.88 21.02Q203.88 21.06 203.88 21.11Q203.88 21.16 203.88 21.22Q203.88 21.27 203.88 21.34L203.88 21.34Q203.35 20.64 202.53 20.08Q201.71 19.52 200.67 19.13Q199.64 18.75 198.49 18.56Q197.33 18.36 196.11 18.36L196.11 18.36Q194.22 18.36 192.75 18.73Q191.28 19.10 190.21 19.77Q189.14 20.43 188.44 21.30Q187.74 22.18 187.39 23.16Q187.04 24.14 187.04 25.16L187.04 25.16Q187.04 26.84 187.74 28.09Q188.44 29.36 189.65 30.20Q190.85 31.04 192.38 31.47Q193.90 31.91 195.55 31.91L195.55 31.91Q196.91 31.91 198.29 31.65Q199.68 31.39 200.94 30.75L200.94 30.75Q201.67 29.04 202.42 27.32Q203.18 25.61 203.91 23.89L203.91 23.89Q203.49 24.91 202.69 25.16Q201.88 25.40 201.25 25.40L201.25 25.40Q199.96 25.40 199.25 24.86Q198.56 24.31 198.56 23.65L198.56 23.65Q198.56 22.98 199.24 22.46Q199.92 21.93 201.25 21.93L201.25 21.93Q201.84 21.93 202.44 22.09Q203.03 22.25 203.46 22.63Q203.88 23.02 203.88 23.65L203.88 23.65Q203.88 25.47 203.88 27.31Q203.88 29.14 203.88 31L203.88 31Q205.10 31 206.32 31Q207.55 31 208.78 31Q210 31 211.22 31Q212.45 31 213.68 31Q214.90 31 216.13 31L216.13 31Q216.13 27.61 216.13 24.21Q216.13 20.81 216.13 17.42L216.13 17.42Q216.13 15.11 214.87 13.39Q213.61 11.68 211.45 10.52Q209.30 9.37 206.57 8.81Q203.84 8.25 200.90 8.25L200.90 8.25Q197.89 8.25 194.90 8.83Q191.91 9.40 189.35 10.56ZM229.43 31L217.31 31Q217.31 29.39 217.31 27.80Q217.31 26.20 217.31 24.61Q217.31 23.02 217.31 21.45L217.31 21.45Q217.31 20.78 217.31 20.11Q217.31 19.45 217.31 18.78L217.31 18.78Q219.34 18.78 221.36 18.78Q223.37 18.78 225.40 18.78Q227.43 18.78 229.43 18.78L229.43 18.78Q229.43 20.81 229.43 22.84Q229.43 24.88 229.43 26.92Q229.43 28.97 229.43 31L229.43 31ZM217.31 18.78L217.31 18.78Q217.31 16.41 217.31 14.02Q217.31 11.64 217.31 9.30L217.31 9.30L229.43 9.30Q229.43 10.45 229.43 11.61Q229.43 12.76 229.43 13.92Q229.43 15.07 229.43 16.23L229.43 16.23Q229.43 16.23 229.41 16.25Q229.39 16.27 229.39 16.27L229.39 16.27Q226.38 16.89 223.35 17.52Q220.33 18.16 217.31 18.78ZM230.65 9.30L242.76 9.30Q242.76 11.40 242.76 13.52Q242.76 15.63 242.76 17.75Q242.76 19.87 242.76 22.00L242.76 22.00Q242.76 24.24 242.76 26.48Q242.76 28.73 242.76 31L242.76 31L230.65 31Q230.65 27.54 230.65 24.07Q230.65 20.60 230.65 17.14L230.65 17.14Q230.65 15.18 230.65 13.22Q230.65 11.26 230.65 9.30L230.65 9.30ZM242.72 22.67L242.72 22.67L244.61 13.25Q244.93 11.75 245.86 10.75Q246.78 9.75 248.04 9.23Q249.30 8.70 250.63 8.58Q251.96 8.46 253.08 8.69Q254.20 8.91 254.87 9.44L254.87 9.44L252.21 22.46Q251.19 21.62 249.74 21.30Q248.29 20.99 246.82 21.08Q245.35 21.16 244.23 21.59Q243.11 22.00 242.72 22.67ZM276.68 35.20L264.81 35.20Q265.44 34.50 266.03 33.80Q266.63 33.10 267.24 32.40Q267.86 31.70 268.45 31L268.45 31L261.90 31Q260.75 27.36 259.59 23.75Q258.44 20.15 257.28 16.53Q256.13 12.90 254.97 9.30L254.97 9.30L267.82 9.30Q268.45 13.04 269.06 16.79Q269.68 20.53 270.31 24.28L270.31 24.28Q270.31 24.28 270.32 24.38Q270.34 24.49 270.34 24.49L270.34 24.49Q270.34 24.49 270.36 24.44Q270.38 24.38 270.38 24.35Q270.38 24.31 270.38 24.31L270.38 24.31Q270.83 21.80 271.25 19.29Q271.67 16.79 272.11 14.29Q272.55 11.78 272.96 9.30L272.96 9.30L285.14 9.30Q283.75 13.64 282.33 17.95Q280.91 22.25 279.51 26.55Q278.11 30.86 276.68 35.20L276.68 35.20Z"/></g>
        
      </svg>
    